<svg aria-hidden="true" style="width:0;height:0;position:absolute;overflow:hidden" xmlns="http://www.w3.org/2000/svg"><defs><symbol id="android_icon" viewBox="0 0 29 32"><path d="M28.384 12.16v7.89a1.977 1.977 0 0 1-1.972 1.972 1.977 1.977 0 0 1-1.972-1.971v-7.892c0-1.084.887-1.971 1.971-1.971 1.087 0 1.974.887 1.974 1.971zm-23.67 0v7.89a1.978 1.978 0 0 1-1.974 1.972 1.978 1.978 0 0 1-1.971-1.971v-7.892c0-1.084.887-1.971 1.971-1.971 1.087 0 1.974.887 1.974 1.971zm.986 0h17.754v10.849a2.96 2.96 0 0 1-2.959 2.958h-.986v3.946a1.978 1.978 0 0 1-1.974 1.971 1.978 1.978 0 0 1-1.971-1.971v-3.947H13.59v3.946c0 1.084-.887 1.971-1.972 1.971s-1.971-.887-1.971-1.971v-3.946H8.66a2.958 2.958 0 0 1-2.959-2.958zm17.698-1.971H5.754a8.904 8.904 0 0 1 5.111-7.081l.055-.023-1.248-2.4a.248.248 0 1 1 .437-.23l.001.002 1.267 2.435a8.685 8.685 0 0 1 3.191-.595h.009a8.86 8.86 0 0 1 3.199.595L19.043.457a.246.246 0 0 1 .437.228l.001-.002-1.249 2.399c2.808 1.293 4.8 3.929 5.162 7.063l.004.041zM12.061 7.228l.001-.043a1.431 1.431 0 1 0-2.861.045v-.002a1.431 1.431 0 0 0 2.86.002v-.002zm7.89 0 .001-.043a1.431 1.431 0 1 0-2.861.045v-.002a1.431 1.431 0 0 0 2.86.002v-.002z"/></symbol><symbol id="apple_icon" viewBox="0 0 26 32"><path d="M24.714 23.14c-.037.107-.639 2.178-2.102 4.316-1.265 1.85-2.576 3.691-4.644 3.728-2.033.037-2.687-1.205-5.009-1.205-2.324 0-3.051 1.168-4.972 1.243-1.994.074-3.515-1.998-4.79-3.84-2.608-3.766-4.598-10.646-1.924-15.29 1.328-2.306 3.703-3.766 6.278-3.803 1.959-.038 3.812 1.318 5.008 1.318 1.199 0 3.446-1.631 5.809-1.391.99.041 3.766.399 5.551 3.008-.143.09-3.316 1.934-3.278 5.777.041 4.591 4.027 6.117 4.074 6.138zM12.32 7.872c-.23-1.744.628-3.559 1.612-4.697C15.025 1.893 16.875.939 18.4.877c.197 1.778-.519 3.561-1.578 4.846-1.061 1.281-2.799 2.281-4.502 2.149z"/></symbol><symbol id="comment_icon" viewBox="0 0 34 32"><path d="M33.935 2.133v21.333a2.134 2.134 0 0 1-2.121 2.133H17.233l-8.745 6.4v-6.4H2.127a2.134 2.134 0 0 1-2.121-2.133V2.133C.006.96.961 0 2.127 0h29.687c1.166 0 2.121.96 2.121 2.133zm-4.242 2.134H4.246v17.067h25.447z"/></symbol><symbol id="layers_icon" viewBox="0 0 32 32"><path d="m.005 16 6.123-2L16 18.936l10.372-5.061 5.623 2.124L16 23.997zm0-7.998L16 .005l15.995 7.997L16 15.999zM16 26.934l10.372-5.061 5.623 2.124L16 31.995.005 23.997l6.123-2z"/></symbol><symbol id="message_icon" viewBox="0 0 32 32"><path d="M31.995 21.998v-7.997c0-2-2-3.999-3.999-3.999h-2v1.999c0 3.083-2.913 5.998-5.998 5.998h-9.169l-2.827 2.827v1.172c0 2 2 3.999 3.999 3.999h9.996l5.998 5.998v-5.998c2 0 3.999-2 3.999-3.999zm-7.998-9.997V4.004c0-2-1.999-3.999-3.999-3.999H4.003c-2 0-3.999 2-3.999 3.999v7.997c0 2 1.999 3.999 3.999 3.999v5.998L10.002 16h9.997c2 0 3.999-2 3.999-3.999z"/></symbol><symbol id="mobile_icon" viewBox="0 0 22 32"><path d="M18.829 31.995H2.969c-1.638 0-2.974-1.345-2.974-2.999V3.004C-.004 1.351 1.332.005 2.969.005h15.86c1.642 0 2.974 1.346 2.974 2.999v25.992c0 1.654-1.332 2.999-2.974 2.999zm.991-28.991v-.002a.997.997 0 0 0-.991-.997H2.968a.997.997 0 0 0-.991.997v25.997c0 .549.443.994.991.997h15.861a.997.997 0 0 0 .991-.997v-.003zm-15.86 1h13.876v21.993H3.96zm6.938 22.992a.997.997 0 0 1 .992.997v.005a.997.997 0 0 1-.991.997.997.997 0 0 1-.991-.997v-.005c0-.549.443-.994.991-.997z"/></symbol><symbol id="play_icon" viewBox="0 0 28 32"><path d="m26.872 14.042-8.169-4.828C42.115 22.128 39.948 20.831 37.78 19.536L12.069 5.299 3.599.471C1.778-.606-.013.259-.013 2.399V29.6c0 2.133 1.791 3.006 3.612 1.928l8.32-4.826c1.829-1.079 4.888-2.839 6.709-3.916l8.207-4.827c1.821-1.078 1.859-2.839.038-3.915z"/></symbol><symbol id="arrow" viewBox="0 0 19 32"><path d="M18.667 32h-3.733L.001 16 14.934 0h3.733L3.734 16z"/></symbol></defs></svg>